<svg width="8" height="16" viewBox="0 0 8 16" fill="none" xmlns="http://www.w3.org/2000/svg">
<path d="M8 0.998258C7.99976 1.26369 7.89284 1.51816 7.70275 1.70573L2.51977 6.82621C2.36289 6.98115 2.23845 7.16511 2.15354 7.36758C2.06864 7.57005 2.02494 7.78706 2.02494 8.00621C2.02494 8.22537 2.06864 8.44238 2.15354 8.64485C2.23845 8.84731 2.36289 9.03127 2.51977 9.18622L7.69599 14.3034C7.88058 14.4922 7.98272 14.7451 7.98042 15.0076C7.97811 15.2701 7.87153 15.5212 7.68365 15.7068C7.49576 15.8924 7.2416 15.9977 6.9759 16C6.71021 16.0022 6.45423 15.9013 6.26311 15.719L1.08689 10.6058C0.390892 9.91687 4.76837e-07 8.98326 4.76837e-07 8.00988C4.76837e-07 7.03651 0.390892 6.10289 1.08689 5.41394L6.26986 0.293458C6.41138 0.153555 6.59168 0.0581989 6.78799 0.0194254C6.98431 -0.0193481 7.18786 0.000196457 7.37294 0.0755939C7.55803 0.150991 7.71636 0.278863 7.82796 0.443072C7.93956 0.607282 7.99942 0.800469 8 0.998258Z" fill="#808080"/>
</svg>
