<svg width="16" height="8" viewBox="0 0 16 8" fill="none" xmlns="http://www.w3.org/2000/svg">
<path id="Vector" d="M0.998258 8C1.26369 7.99976 1.51816 7.89284 1.70573 7.70275L6.82621 2.51977C6.98115 2.36289 7.16511 2.23845 7.36758 2.15354C7.57005 2.06864 7.78706 2.02494 8.00621 2.02494C8.22537 2.02494 8.44238 2.06864 8.64485 2.15354C8.84731 2.23845 9.03127 2.36289 9.18622 2.51977L14.3034 7.69599C14.4922 7.88058 14.7451 7.98272 15.0076 7.98042C15.2701 7.97811 15.5212 7.87153 15.7068 7.68365C15.8924 7.49576 15.9977 7.2416 16 6.9759C16.0022 6.71021 15.9013 6.45423 15.719 6.26311L10.6058 1.08689C9.91687 0.390891 8.98326 3.93163e-07 8.00988 3.81556e-07C7.03651 3.69949e-07 6.10289 0.390891 5.41394 1.08689L0.293458 6.26986C0.153554 6.41138 0.0581989 6.59168 0.0194254 6.78799C-0.0193481 6.98431 0.000196467 7.18786 0.075594 7.37294C0.150991 7.55803 0.278864 7.71636 0.443072 7.82796C0.607282 7.93956 0.800469 7.99942 0.998258 8Z" fill="black"/>
</svg>
