<svg width="20" height="16" viewBox="0 0 20 16" fill="none" xmlns="http://www.w3.org/2000/svg">
<path id="&#208;&#152;&#208;&#186;&#208;&#190;&#208;&#189;&#208;&#186;&#208;&#176;" fill-rule="evenodd" clip-rule="evenodd" d="M16 8.00484C16.7481 8.00465 17.4811 7.79455 18.1159 7.3984C18.7506 7.00225 19.2616 6.43593 19.5908 5.76377C19.92 5.09161 20.0543 4.34053 19.9783 3.59586C19.9023 2.85119 19.6191 2.14276 19.1609 1.55105C18.7028 0.959329 18.0879 0.508036 17.3863 0.248425C16.6846 -0.0111854 15.9243 -0.0687081 15.1916 0.0823898C14.4589 0.233488 13.7832 0.587151 13.2413 1.10321C12.6994 1.61927 12.313 2.27704 12.126 3.00181H1C0.734785 3.00181 0.480431 3.10723 0.292895 3.29488C0.105359 3.48253 1.95568e-06 3.73704 1.95568e-06 4.00242C1.95568e-06 4.2678 0.105359 4.5223 0.292895 4.70995C0.480431 4.8976 0.734785 5.00302 1 5.00302H12.126C12.57 6.72907 14.136 8.00484 16 8.00484ZM14 4.00242C14 4.53317 14.2107 5.04219 14.5858 5.41749C14.9609 5.79279 15.4696 6.00363 16 6.00363C16.5304 6.00363 17.0391 5.79279 17.4142 5.41749C17.7893 5.04219 18 4.53317 18 4.00242C18 3.47167 17.7893 2.96265 17.4142 2.58735C17.0391 2.21205 16.5304 2.00121 16 2.00121C15.4696 2.00121 14.9609 2.21205 14.5858 2.58735C14.2107 2.96265 14 3.47167 14 4.00242ZM1.95568e-06 12.0073C-0.000960956 11.0324 0.353685 10.0907 0.997376 9.35893C1.64107 8.62715 2.52954 8.15559 3.49605 8.03277C4.46255 7.90995 5.44062 8.14431 6.24669 8.69186C7.05276 9.23941 7.6314 10.0625 7.874 11.0066H19C19.2652 11.0066 19.5196 11.1121 19.7071 11.2997C19.8946 11.4874 20 11.7419 20 12.0073C20 12.2726 19.8946 12.5271 19.7071 12.7148C19.5196 12.9024 19.2652 13.0079 19 13.0079H7.874C7.62827 13.9489 7.04864 14.7683 6.24333 15.3131C5.43802 15.8578 4.4621 16.0906 3.49778 15.9681C2.53346 15.8455 1.64669 15.376 1.00303 14.6471C0.359371 13.9183 0.00283796 12.9799 1.95568e-06 12.0073ZM6 12.0073C6 11.4765 5.78929 10.9675 5.41422 10.5922C5.03914 10.2169 4.53043 10.006 4 10.006C3.46957 10.006 2.96086 10.2169 2.58579 10.5922C2.21072 10.9675 2 11.4765 2 12.0073C2 12.538 2.21072 13.047 2.58579 13.4223C2.96086 13.7976 3.46957 14.0085 4 14.0085C4.53043 14.0085 5.03914 13.7976 5.41422 13.4223C5.78929 13.047 6 12.538 6 12.0073Z" fill="black"/>
</svg>
