<svg width="6" height="12" viewBox="0 0 6 12" fill="none" xmlns="http://www.w3.org/2000/svg">
<path id="Vector" d="M0 0.748693C0.00017739 0.947764 0.0803668 1.13862 0.222938 1.27929L4.11017 5.11966C4.22783 5.23586 4.32116 5.37384 4.38484 5.52569C4.44852 5.67754 4.4813 5.84029 4.4813 6.00466C4.4813 6.16903 4.44852 6.33178 4.38484 6.48363C4.32116 6.63548 4.22783 6.77346 4.11017 6.88966L0.228005 10.7275C0.0895618 10.8691 0.0129564 11.0588 0.014688 11.2557C0.0164196 11.4525 0.0963499 11.6409 0.237263 11.7801C0.378176 11.9193 0.568798 11.9983 0.768072 12C0.967346 12.0017 1.15933 11.926 1.30267 11.7892L5.18483 7.95437C5.70683 7.43766 6 6.73744 6 6.00741C6 5.27738 5.70683 4.57717 5.18483 4.06045L1.2976 0.220094C1.19146 0.115166 1.05624 0.0436487 0.909004 0.0145693C0.761765 -0.0145111 0.609107 0.000146866 0.470293 0.0566959C0.331478 0.113244 0.212729 0.209147 0.12903 0.332305C0.0453304 0.455462 0.00043184 0.600352 0 0.748693Z" fill="black"/>
</svg>
