<svg width="16" height="8" viewBox="0 0 16 8" fill="none" xmlns="http://www.w3.org/2000/svg">
<path id="Vector" d="M15.0017 6.55747e-07C14.7363 0.000237164 14.4818 0.107156 14.2943 0.297252L9.17379 5.48023C9.01885 5.63711 8.83489 5.76155 8.63242 5.84646C8.42995 5.93136 8.21294 5.97506 7.99379 5.97506C7.77463 5.97506 7.55762 5.93136 7.35515 5.84646C7.15269 5.76155 6.96873 5.63711 6.81378 5.48023L1.69664 0.304007C1.50782 0.119416 1.25493 0.0172752 0.992437 0.019584C0.729942 0.0218929 0.478845 0.128467 0.293226 0.316351C0.107607 0.504235 0.00231882 0.758398 3.78008e-05 1.0241C-0.00224322 1.28979 0.0986657 1.54577 0.281031 1.73689L5.39417 6.91311C6.08313 7.60911 7.01674 8 7.99012 8C8.96349 8 9.8971 7.60911 10.5861 6.91311L15.7065 1.73014C15.8464 1.58862 15.9418 1.40832 15.9806 1.21201C16.0193 1.01569 15.9998 0.812143 15.9244 0.627057C15.849 0.441972 15.7211 0.283639 15.5569 0.17204C15.3927 0.0604412 15.1995 0.000576451 15.0017 6.55747e-07Z" fill="#808080"/>
</svg>
