<svg width="8" height="16" viewBox="0 0 8 16" fill="none" xmlns="http://www.w3.org/2000/svg">
<path d="M0 0.998258C0.00023652 1.26369 0.107156 1.51816 0.297251 1.70573L5.48023 6.82621C5.63711 6.98115 5.76155 7.16511 5.84646 7.36758C5.93136 7.57005 5.97506 7.78706 5.97506 8.00621C5.97506 8.22537 5.93136 8.44238 5.84646 8.64485C5.76155 8.84731 5.63711 9.03127 5.48023 9.18622L0.304007 14.3034C0.119416 14.4922 0.0172752 14.7451 0.019584 15.0076C0.0218929 15.2701 0.128467 15.5212 0.316351 15.7068C0.504235 15.8924 0.758398 15.9977 1.0241 16C1.28979 16.0022 1.54577 15.9013 1.73689 15.719L6.91311 10.6058C7.60911 9.91687 8 8.98326 8 8.00988C8 7.03651 7.60911 6.10289 6.91311 5.41394L1.73014 0.293458C1.58862 0.153555 1.40832 0.0581989 1.21201 0.0194254C1.01569 -0.0193481 0.812142 0.000196457 0.627057 0.0755939C0.441971 0.150991 0.283639 0.278863 0.17204 0.443072C0.0604405 0.607282 0.000575787 0.800469 0 0.998258Z" fill="#808080"/>
</svg>
