<svg width="22" height="22" viewBox="0 0 22 22" fill="none" xmlns="http://www.w3.org/2000/svg">
<g id="&#208;&#154;&#208;&#189;&#208;&#190;&#208;&#191;&#208;&#186;&#208;&#176; (&#209;&#129;&#208;&#178;&#208;&#190;&#209;&#128;&#208;&#176;&#209;&#135;&#208;&#184;&#208;&#178;&#208;&#176;&#208;&#181;&#209;&#130; &#209;&#132;&#208;&#184;&#208;&#187;&#209;&#140;&#209;&#130;&#209;&#128;)">
<path d="M0.288751 19.6206C-0.0961379 20.0055 -0.0961376 20.6295 0.288751 21.0144L0.985654 21.7113C1.37054 22.0962 1.99457 22.0962 2.37946 21.7113L21.7113 2.37939C22.0962 1.9945 22.0962 1.37047 21.7113 0.985574L21.0144 0.288668C20.6295 -0.0962226 20.0055 -0.0962226 19.6206 0.288668L0.288751 19.6206Z" fill="black"/>
<path d="M21.7112 19.6206C22.0961 20.0055 22.0961 20.6295 21.7112 21.0144L21.0143 21.7113C20.6295 22.0962 20.0054 22.0962 19.6205 21.7113L0.288667 2.37939C-0.0962222 1.9945 -0.0962222 1.37047 0.288667 0.985574L0.98557 0.288668C1.37046 -0.0962226 1.99449 -0.0962226 2.37938 0.288668L21.7112 19.6206Z" fill="black"/>
</g>
</svg>
