<svg width="12" height="12" viewBox="0 0 12 12" fill="none" xmlns="http://www.w3.org/2000/svg">
<g id="Vector">
<path d="M0.992588 0.992649C1.3601 0.625137 1.95596 0.625137 2.32347 0.992649L10.9779 9.64704C11.3454 10.0146 11.3454 10.6104 10.9779 10.9779C10.6103 11.3454 10.0145 11.3454 9.64698 10.9779L0.992588 2.32353C0.625076 1.95602 0.625076 1.36016 0.992588 0.992649Z" fill="#FD6814"/>
<path d="M10.9779 0.992649C11.3454 1.36016 11.3454 1.95602 10.9779 2.32353L2.32347 10.9779C1.95596 11.3454 1.3601 11.3454 0.992588 10.9779C0.625076 10.6104 0.625076 10.0146 0.992588 9.64704L9.64698 0.992649C10.0145 0.625137 10.6103 0.625137 10.9779 0.992649Z" fill="#FD6814"/>
</g>
</svg>
