<svg width="24" height="21" viewBox="0 0 24 21" fill="none" xmlns="http://www.w3.org/2000/svg">
<path d="M1 0C0.447715 0 0 0.447716 0 1V2C0 2.55228 0.447716 3 1 3H23C23.5523 3 24 2.55228 24 2V1C24 0.447716 23.5523 0 23 0H1Z" fill="black"/>
<path d="M1 9C0.447715 9 0 9.44772 0 10V11C0 11.5523 0.447716 12 1 12H11C11.5523 12 12 11.5523 12 11V10C12 9.44772 11.5523 9 11 9H1Z" fill="black"/>
<path d="M1 18C0.447715 18 0 18.4477 0 19V20C0 20.5523 0.447716 21 1 21H23C23.5523 21 24 20.5523 24 20V19C24 18.4477 23.5523 18 23 18H1Z" fill="black"/>
</svg>
