<svg width="14" height="14" viewBox="0 0 14 14" fill="none" xmlns="http://www.w3.org/2000/svg">
<g id="&#208;&#152;&#208;&#186;&#208;&#190;&#208;&#189;&#208;&#186;&#208;&#176;">
<path d="M0.633189 0.645487C0.955903 0.316506 1.11726 0.152015 1.29726 0.0760075C1.53727 -0.0253358 1.80693 -0.0253358 2.04693 0.0760075C2.22694 0.152015 2.38829 0.316506 2.71101 0.645487L13.1001 11.2363C13.4228 11.5653 13.5842 11.7298 13.6587 11.9133C13.7581 12.158 13.7581 12.4329 13.6587 12.6775C13.5842 12.861 13.4228 13.0255 13.1001 13.3545C12.7774 13.6835 12.616 13.848 12.436 13.924C12.196 14.0253 11.9263 14.0253 11.6863 13.924C11.5063 13.848 11.345 13.6835 11.0223 13.3545L0.633189 2.76366C0.310476 2.43468 0.149119 2.27019 0.0745594 2.08669C-0.0248531 1.84202 -0.0248531 1.56712 0.0745594 1.32246C0.149119 1.13896 0.310476 0.974468 0.633189 0.645487Z" fill="white"/>
<path d="M13.3668 0.645487C13.0441 0.316506 12.8827 0.152015 12.7027 0.0760075C12.4627 -0.0253358 12.1931 -0.0253358 11.9531 0.0760075C11.7731 0.152015 11.6117 0.316506 11.289 0.645487L0.89991 11.2363C0.577196 11.5653 0.415839 11.7298 0.34128 11.9133C0.241867 12.158 0.241867 12.4329 0.34128 12.6775C0.415839 12.861 0.577196 13.0255 0.89991 13.3545C1.22262 13.6835 1.38398 13.848 1.56398 13.924C1.80399 14.0253 2.07365 14.0253 2.31365 13.924C2.49366 13.848 2.65501 13.6835 2.97773 13.3545L13.3668 2.76366C13.6895 2.43468 13.8509 2.27019 13.9254 2.08669C14.0249 1.84202 14.0249 1.56712 13.9254 1.32246C13.8509 1.13896 13.6895 0.974468 13.3668 0.645487Z" fill="white"/>
</g>
</svg>
