<svg width="52" height="36" viewBox="0 0 52 36" fill="none" xmlns="http://www.w3.org/2000/svg">
<g id="&#208;&#157;&#208;&#176;&#208;&#183;&#208;&#176;&#208;&#180;">
<rect id="Rectangle 3" x="51.3437" y="0.656254" width="34.6875" height="50.6875" rx="5.90625" transform="rotate(90 51.3437 0.656254)" fill="white" stroke="#E6E6E6" stroke-width="1.3125"/>
<path id="Vector" d="M18.9983 22C19.2637 21.9998 19.5182 21.8928 19.7057 21.7028L24.8262 16.5198C24.9812 16.3629 25.1651 16.2385 25.3676 16.1535C25.57 16.0686 25.7871 16.0249 26.0062 16.0249C26.2254 16.0249 26.4424 16.0686 26.6448 16.1535C26.8473 16.2385 27.0313 16.3629 27.1862 16.5198L32.3034 21.696C32.4922 21.8806 32.7451 21.9827 33.0076 21.9804C33.2701 21.9781 33.5212 21.8715 33.7068 21.6837C33.8924 21.4958 33.9977 21.2416 34 20.9759C34.0022 20.7102 33.9013 20.4542 33.719 20.2631L28.6058 15.0869C27.9169 14.3909 26.9833 14 26.0099 14C25.0365 14 24.1029 14.3909 23.4139 15.0869L18.2935 20.2699C18.1536 20.4114 18.0582 20.5917 18.0194 20.788C17.9807 20.9843 18.0002 21.1879 18.0756 21.3729C18.151 21.558 18.2789 21.7164 18.4431 21.828C18.6073 21.9396 18.8005 21.9994 18.9983 22Z" fill="#808080"/>
</g>
</svg>
