<svg width="24" height="24" viewBox="0 0 24 24" fill="none" xmlns="http://www.w3.org/2000/svg">
<g id="&#208;&#161;&#209;&#130;&#208;&#184;&#208;&#186;&#208;&#181;&#209;&#128;">
<path id="Rectangle 3" d="M0 10C0 5.28595 0 2.92893 1.46447 1.46447C2.92893 0 5.28595 0 10 0H14C18.714 0 21.0711 0 22.5355 1.46447C24 2.92893 24 5.28595 24 10V14C24 18.714 24 21.0711 22.5355 22.5355C21.0711 24 18.714 24 14 24H0V10Z" fill="#9658C7"/>
<g id="Vector">
<path d="M19.8811 11.4541C19.2957 10.1741 17.0004 6 12.0002 6C7.00007 6 4.70469 10.1741 4.11936 11.4541C4.04071 11.6257 4 11.8122 4 12.0009C4 12.1897 4.04071 12.3762 4.11936 12.5478C4.70469 13.8259 7.00007 18 12.0002 18C17.0004 18 19.2957 13.8259 19.8811 12.5459C19.9594 12.3746 20 12.1884 20 12C20 11.8116 19.9594 11.6254 19.8811 11.4541ZM12.0002 16C11.2091 16 10.4357 15.7654 9.77787 15.3259C9.12005 14.8864 8.60735 14.2616 8.30459 13.5307C8.00183 12.7998 7.92262 11.9956 8.07696 11.2196C8.23131 10.4437 8.61228 9.73098 9.17171 9.17157C9.73113 8.61216 10.4439 8.2312 11.2198 8.07686C11.9958 7.92252 12.8001 8.00173 13.531 8.30448C14.2619 8.60723 14.8867 9.11992 15.3262 9.77772C15.7657 10.4355 16.0003 11.2089 16.0003 12C16.0003 13.0609 15.5789 14.0783 14.8287 14.8284C14.0786 15.5786 13.0611 16 12.0002 16Z" fill="white"/>
<path d="M12.0002 14.6666C13.473 14.6666 14.6669 13.4727 14.6669 12C14.6669 10.5273 13.473 9.33344 12.0002 9.33344C10.5275 9.33344 9.33358 10.5273 9.33358 12C9.33358 13.4727 10.5275 14.6666 12.0002 14.6666Z" fill="white"/>
</g>
</g>
</svg>
