<svg width="58" height="64" viewBox="0 0 58 64" fill="none" xmlns="http://www.w3.org/2000/svg">
<rect x="1" y="1" width="56" height="62" rx="9" fill="white" stroke="#E6E6E6" stroke-width="2"/>
<path d="M35 42.5026C34.9996 42.1045 34.8393 41.7228 34.5541 41.4414L26.7797 33.7607C26.5443 33.5283 26.3577 33.2523 26.2303 32.9486C26.103 32.6449 26.0374 32.3194 26.0374 31.9907C26.0374 31.6619 26.103 31.3364 26.2303 31.0327C26.3577 30.729 26.5443 30.4531 26.7797 30.2207L34.544 22.545C34.8209 22.2617 34.9741 21.8824 34.9706 21.4887C34.9672 21.0949 34.8073 20.7183 34.5255 20.4398C34.2436 20.1614 33.8624 20.0035 33.4639 20.0001C33.0653 19.9966 32.6813 20.148 32.3947 20.4215L24.6303 28.0913C23.5863 29.1247 23 30.5251 23 31.9852C23 33.4452 23.5863 34.8457 24.6303 35.8791L32.4048 43.5598C32.6171 43.7697 32.8875 43.9127 33.182 43.9709C33.4765 44.029 33.7818 43.9997 34.0594 43.8866C34.337 43.7735 34.5745 43.5817 34.7419 43.3354C34.9093 43.0891 34.9991 42.7993 35 42.5026Z" fill="#808080"/>
</svg>
