<svg width="58" height="64" viewBox="0 0 58 64" fill="none" xmlns="http://www.w3.org/2000/svg">
<rect x="1" y="1" width="56" height="62" rx="9" fill="white" stroke="#E6E6E6" stroke-width="2"/>
<path d="M23 42.5026C23.0004 42.1045 23.1607 41.7228 23.4459 41.4414L31.2203 33.7607C31.4557 33.5283 31.6423 33.2523 31.7697 32.9486C31.897 32.6449 31.9626 32.3194 31.9626 31.9907C31.9626 31.6619 31.897 31.3364 31.7697 31.0327C31.6423 30.729 31.4557 30.4531 31.2203 30.2207L23.456 22.545C23.1791 22.2617 23.0259 21.8824 23.0294 21.4887C23.0328 21.0949 23.1927 20.7183 23.4745 20.4398C23.7564 20.1614 24.1376 20.0035 24.5361 20.0001C24.9347 19.9966 25.3187 20.148 25.6053 20.4215L33.3697 28.0913C34.4137 29.1247 35 30.5251 35 31.9852C35 33.4452 34.4137 34.8457 33.3697 35.8791L25.5952 43.5598C25.3829 43.7697 25.1125 43.9127 24.818 43.9709C24.5235 44.029 24.2182 43.9997 23.9406 43.8866C23.663 43.7735 23.4255 43.5817 23.2581 43.3354C23.0907 43.0891 23.0009 42.7993 23 42.5026Z" fill="#808080"/>
</svg>
